<svg width="45" height="45" viewBox="0 0 45 45" fill="none" xmlns="http://www.w3.org/2000/svg">
<path d="M35.6681 31.8319C34.79 30.9907 33.9353 30.1254 33.105 29.2369C32.4075 28.5281 31.9875 28.0125 31.9875 28.0125L26.7375 25.5056C28.8394 23.1218 29.9994 20.0531 30 16.875C30 9.63937 24.1125 3.75 16.875 3.75C9.6375 3.75 3.75 9.63937 3.75 16.875C3.75 24.1106 9.6375 30 16.875 30C20.1806 30 23.1937 28.7625 25.5056 26.7394L28.0125 31.9894C28.0125 31.9894 28.5281 32.4094 29.2369 33.1069C29.9625 33.7875 30.9169 34.7081 31.8319 35.67L34.3781 38.28L35.5106 39.4912L39.4875 35.5144L38.2762 34.3819C37.5656 33.6844 36.6169 32.7581 35.6681 31.8319V31.8319ZM16.875 26.25C11.7056 26.25 7.5 22.0444 7.5 16.875C7.5 11.7056 11.7056 7.5 16.875 7.5C22.0444 7.5 26.25 11.7056 26.25 16.875C26.25 22.0444 22.0444 26.25 16.875 26.25Z" fill="black"/>
</svg>
